<svg xmlns="http://www.w3.org/2000/svg" xmlns:xlink="http://www.w3.org/1999/xlink" width="500" zoomAndPan="magnify" viewBox="0 0 375 374.999991" height="500" preserveAspectRatio="xMidYMid meet" version="1.0"><defs><g/><clipPath id="27ee502d7d"><path d="M 0.519531 0.640625 L 29.320312 0.640625 L 29.320312 29.679688 L 0.519531 29.679688 Z M 0.519531 0.640625 " clip-rule="nonzero"/></clipPath><clipPath id="d59dbb9a39"><path d="M 6.980469 0.820312 L 29.265625 7.214844 L 22.871094 29.5 L 0.585938 23.105469 Z M 6.980469 0.820312 " clip-rule="nonzero"/></clipPath><clipPath id="39b28f4110"><path d="M 0.519531 0.640625 L 29.320312 0.640625 L 29.320312 29.679688 L 0.519531 29.679688 Z M 0.519531 0.640625 " clip-rule="nonzero"/></clipPath><clipPath id="400f0a9057"><path d="M 6.980469 0.820312 L 29.265625 7.214844 L 22.871094 29.5 L 0.585938 23.105469 Z M 6.980469 0.820312 " clip-rule="nonzero"/></clipPath><clipPath id="be528e6bab"><rect x="0" width="30" y="0" height="30"/></clipPath><clipPath id="305debae90"><path d="M 8 8 L 22 8 L 22 22 L 8 22 Z M 8 8 " clip-rule="nonzero"/></clipPath><clipPath id="1142e622be"><path d="M 11.621094 8.640625 L 21.121094 11.28125 L 18.230469 21.679688 L 8.730469 19.039062 Z M 11.621094 8.640625 " clip-rule="nonzero"/></clipPath><clipPath id="8fa42b625d"><path d="M 0.679688 0.558594 L 13.160156 0.558594 L 13.160156 13.761719 L 0.679688 13.761719 Z M 0.679688 0.558594 " clip-rule="nonzero"/></clipPath><clipPath id="42f785ce01"><path d="M 3.621094 0.640625 L 13.121094 3.28125 L 10.230469 13.679688 L 0.730469 11.039062 Z M 3.621094 0.640625 " clip-rule="nonzero"/></clipPath><clipPath id="f175ef7990"><rect x="0" width="14" y="0" height="14"/></clipPath><clipPath id="6913918273"><rect x="0" width="30" y="0" height="30"/></clipPath></defs><g transform="matrix(1, 0, 0, 1, 275, 158)"><g clip-path="url(#6913918273)"><g clip-path="url(#27ee502d7d)"><g clip-path="url(#d59dbb9a39)"><g><g clip-path="url(#be528e6bab)"><g clip-path="url(#39b28f4110)"><g clip-path="url(#400f0a9057)"><path fill="#ffffff" d="M 6.980469 0.820312 L 29.265625 7.214844 L 22.871094 29.5 L 0.585938 23.105469 Z M 6.980469 0.820312 " fill-opacity="1" fill-rule="nonzero"/></g></g></g></g></g></g><g clip-path="url(#305debae90)"><g clip-path="url(#1142e622be)"><g transform="matrix(1, 0, 0, 1, 8, 8)"><g clip-path="url(#f175ef7990)"><g clip-path="url(#8fa42b625d)"><g clip-path="url(#42f785ce01)"><path fill="#000000" d="M 3.621094 0.640625 L 13.121094 3.28125 L 10.230469 13.671875 L 0.730469 11.03125 Z M 3.621094 0.640625 " fill-opacity="1" fill-rule="nonzero"/></g></g></g></g></g></g></g></g><g fill="#ffffff" fill-opacity="1"><g transform="translate(48.146485, 179.340838)"><g><path d="M 22.421875 -1.46875 L 13.953125 -0.375 L 12.921875 -4.234375 L 9.03125 -4.234375 L 8.171875 -0.375 L -0.546875 -1.234375 L 6.25 -24 L 15.75 -24.46875 Z M 12.3125 -9.46875 L 11 -15.421875 L 9.734375 -9.46875 Z M 12.3125 -9.46875 "/></g></g></g><g fill="#ffffff" fill-opacity="1"><g transform="translate(70.050773, 179.340838)"><g><path d="M 20.234375 -13.5625 C 20.234375 -11.96875 20.023438 -10.539062 19.609375 -9.28125 C 19.203125 -8.019531 18.628906 -6.898438 17.890625 -5.921875 C 17.160156 -4.941406 16.285156 -4.109375 15.265625 -3.421875 C 14.253906 -2.742188 13.144531 -2.1875 11.9375 -1.75 C 10.738281 -1.3125 9.457031 -0.988281 8.09375 -0.78125 C 6.726562 -0.582031 5.328125 -0.484375 3.890625 -0.484375 C 3.359375 -0.484375 2.835938 -0.492188 2.328125 -0.515625 C 1.816406 -0.546875 1.289062 -0.59375 0.75 -0.65625 L 1.234375 -22.90625 C 2.484375 -23.300781 3.769531 -23.582031 5.09375 -23.75 C 6.425781 -23.914062 7.75 -24 9.0625 -24 C 10.6875 -24 12.179688 -23.769531 13.546875 -23.3125 C 14.921875 -22.851562 16.101562 -22.179688 17.09375 -21.296875 C 18.082031 -20.421875 18.851562 -19.332031 19.40625 -18.03125 C 19.957031 -16.738281 20.234375 -15.25 20.234375 -13.5625 Z M 8.609375 -7 C 9.296875 -7.101562 9.921875 -7.3125 10.484375 -7.625 C 11.046875 -7.9375 11.53125 -8.320312 11.9375 -8.78125 C 12.351562 -9.25 12.671875 -9.773438 12.890625 -10.359375 C 13.117188 -10.953125 13.234375 -11.578125 13.234375 -12.234375 C 13.234375 -12.878906 13.160156 -13.484375 13.015625 -14.046875 C 12.878906 -14.617188 12.65625 -15.113281 12.34375 -15.53125 C 12.039062 -15.945312 11.640625 -16.273438 11.140625 -16.515625 C 10.640625 -16.765625 10.023438 -16.898438 9.296875 -16.921875 Z M 8.609375 -7 "/></g></g></g><g fill="#ffffff" fill-opacity="1"><g transform="translate(89.973047, 179.340838)"><g><path d="M 21.84375 -23.953125 L 15.59375 -0.859375 L 7.109375 -0.375 L -0.578125 -22.703125 L 7.515625 -23.453125 L 10.796875 -10.453125 L 13.984375 -24.46875 Z M 21.84375 -23.953125 "/></g></g></g><g fill="#ffffff" fill-opacity="1"><g transform="translate(110.595815, 179.340838)"><g><path d="M 19.9375 -13.8125 C 19.9375 -12.820312 19.867188 -11.828125 19.734375 -10.828125 C 17.785156 -10.703125 15.847656 -10.5 13.921875 -10.21875 C 12.003906 -9.945312 10.082031 -9.675781 8.15625 -9.40625 C 8.445312 -8.582031 8.910156 -7.925781 9.546875 -7.4375 C 10.179688 -6.945312 10.9375 -6.703125 11.8125 -6.703125 C 12.269531 -6.703125 12.765625 -6.785156 13.296875 -6.953125 C 13.835938 -7.128906 14.375 -7.34375 14.90625 -7.59375 C 15.445312 -7.851562 15.960938 -8.128906 16.453125 -8.421875 C 16.941406 -8.722656 17.363281 -8.992188 17.71875 -9.234375 L 16.90625 -1.46875 C 16.457031 -1.125 15.972656 -0.832031 15.453125 -0.59375 C 14.941406 -0.351562 14.40625 -0.160156 13.84375 -0.015625 C 13.28125 0.128906 12.710938 0.234375 12.140625 0.296875 C 11.578125 0.367188 11.019531 0.40625 10.46875 0.40625 C 9.34375 0.40625 8.3125 0.253906 7.375 -0.046875 C 6.445312 -0.359375 5.601562 -0.789062 4.84375 -1.34375 C 4.082031 -1.894531 3.414062 -2.546875 2.84375 -3.296875 C 2.28125 -4.046875 1.8125 -4.863281 1.4375 -5.75 C 1.0625 -6.644531 0.773438 -7.585938 0.578125 -8.578125 C 0.390625 -9.566406 0.296875 -10.570312 0.296875 -11.59375 C 0.296875 -12.644531 0.390625 -13.703125 0.578125 -14.765625 C 0.773438 -15.828125 1.066406 -16.847656 1.453125 -17.828125 C 1.847656 -18.804688 2.34375 -19.710938 2.9375 -20.546875 C 3.539062 -21.390625 4.238281 -22.125 5.03125 -22.75 C 5.832031 -23.375 6.738281 -23.863281 7.75 -24.21875 C 8.757812 -24.570312 9.875 -24.75 11.09375 -24.75 C 12.101562 -24.75 13.023438 -24.609375 13.859375 -24.328125 C 14.703125 -24.046875 15.453125 -23.65625 16.109375 -23.15625 C 16.765625 -22.664062 17.332031 -22.078125 17.8125 -21.390625 C 18.300781 -20.710938 18.703125 -19.960938 19.015625 -19.140625 C 19.328125 -18.328125 19.554688 -17.46875 19.703125 -16.5625 C 19.859375 -15.65625 19.9375 -14.738281 19.9375 -13.8125 Z M 13.109375 -14.703125 C 13.109375 -15.015625 13.070312 -15.335938 13 -15.671875 C 12.9375 -16.015625 12.828125 -16.320312 12.671875 -16.59375 C 12.515625 -16.863281 12.3125 -17.085938 12.0625 -17.265625 C 11.8125 -17.441406 11.5 -17.53125 11.125 -17.53125 C 10.664062 -17.53125 10.265625 -17.40625 9.921875 -17.15625 C 9.578125 -16.914062 9.273438 -16.609375 9.015625 -16.234375 C 8.765625 -15.867188 8.5625 -15.46875 8.40625 -15.03125 C 8.25 -14.601562 8.128906 -14.207031 8.046875 -13.84375 L 13.109375 -14.328125 Z M 13.109375 -14.703125 "/></g></g></g><g fill="#ffffff" fill-opacity="1"><g transform="translate(130.774413, 179.340838)"><g><path d="M 22.078125 -8.640625 C 22.078125 -7.359375 22.0625 -6.085938 22.03125 -4.828125 C 22.007812 -3.566406 21.96875 -2.300781 21.90625 -1.03125 L 12.0625 -1.203125 C 12.40625 -3.210938 12.703125 -5.222656 12.953125 -7.234375 C 13.203125 -9.242188 13.328125 -11.273438 13.328125 -13.328125 C 13.328125 -13.472656 13.320312 -13.710938 13.3125 -14.046875 C 13.300781 -14.378906 13.273438 -14.753906 13.234375 -15.171875 C 13.203125 -15.585938 13.15625 -16.015625 13.09375 -16.453125 C 13.03125 -16.890625 12.945312 -17.289062 12.84375 -17.65625 C 12.738281 -18.019531 12.609375 -18.316406 12.453125 -18.546875 C 12.296875 -18.785156 12.109375 -18.90625 11.890625 -18.90625 C 11.503906 -18.90625 11.175781 -18.789062 10.90625 -18.5625 C 10.644531 -18.332031 10.425781 -18.035156 10.25 -17.671875 C 10.070312 -17.316406 9.929688 -16.914062 9.828125 -16.46875 C 9.722656 -16.03125 9.644531 -15.585938 9.59375 -15.140625 C 9.539062 -14.691406 9.503906 -14.269531 9.484375 -13.875 C 9.472656 -13.488281 9.46875 -13.171875 9.46875 -12.921875 C 9.40625 -10.898438 9.359375 -8.894531 9.328125 -6.90625 C 9.296875 -4.925781 9.25 -2.921875 9.1875 -0.890625 L 0.484375 -0.515625 C 0.710938 -4.535156 0.929688 -8.53125 1.140625 -12.5 C 1.347656 -16.476562 1.515625 -20.476562 1.640625 -24.5 L 9.703125 -24.921875 L 9.640625 -22.1875 C 9.960938 -22.570312 10.304688 -22.9375 10.671875 -23.28125 C 11.046875 -23.625 11.441406 -23.914062 11.859375 -24.15625 C 12.285156 -24.40625 12.734375 -24.597656 13.203125 -24.734375 C 13.671875 -24.878906 14.171875 -24.953125 14.703125 -24.953125 C 15.671875 -24.953125 16.519531 -24.789062 17.25 -24.46875 C 17.976562 -24.15625 18.601562 -23.722656 19.125 -23.171875 C 19.644531 -22.628906 20.082031 -21.984375 20.4375 -21.234375 C 20.789062 -20.484375 21.078125 -19.6875 21.296875 -18.84375 C 21.515625 -18 21.675781 -17.117188 21.78125 -16.203125 C 21.894531 -15.285156 21.972656 -14.382812 22.015625 -13.5 C 22.054688 -12.613281 22.078125 -11.753906 22.078125 -10.921875 C 22.078125 -10.085938 22.078125 -9.328125 22.078125 -8.640625 Z M 22.078125 -8.640625 "/></g></g></g><g fill="#ffffff" fill-opacity="1"><g transform="translate(153.584261, 179.340838)"><g><path d="M 18.96875 -24.09375 L 18.796875 -16.84375 L 13.703125 -16.640625 L 13.09375 -0.78125 L 5.875 -0.40625 L 5.234375 -16.265625 L 0.140625 -16 L 0.34375 -24.0625 Z M 18.96875 -24.09375 "/></g></g></g><g fill="#ffffff" fill-opacity="1"><g transform="translate(172.652268, 179.340838)"><g><path d="M 21.25 -24.0625 C 20.726562 -20.050781 20.285156 -16.0625 19.921875 -12.09375 C 19.554688 -8.125 19.210938 -4.128906 18.890625 -0.109375 L 11.875 0.40625 L 12.1875 -2.21875 C 11.957031 -1.957031 11.691406 -1.726562 11.390625 -1.53125 C 11.085938 -1.34375 10.765625 -1.1875 10.421875 -1.0625 C 10.078125 -0.945312 9.722656 -0.863281 9.359375 -0.8125 C 8.992188 -0.757812 8.648438 -0.738281 8.328125 -0.75 C 7.546875 -0.757812 6.8125 -0.910156 6.125 -1.203125 C 5.445312 -1.492188 4.820312 -1.878906 4.25 -2.359375 C 3.6875 -2.847656 3.175781 -3.414062 2.71875 -4.0625 C 2.257812 -4.707031 1.875 -5.382812 1.5625 -6.09375 C 1.25 -6.800781 1.007812 -7.523438 0.84375 -8.265625 C 0.675781 -9.003906 0.59375 -9.722656 0.59375 -10.421875 C 0.59375 -11.453125 0.613281 -12.515625 0.65625 -13.609375 C 0.695312 -14.710938 0.769531 -15.816406 0.875 -16.921875 C 0.976562 -18.023438 1.109375 -19.117188 1.265625 -20.203125 C 1.429688 -21.285156 1.640625 -22.320312 1.890625 -23.3125 C 3.285156 -23.238281 4.679688 -23.171875 6.078125 -23.109375 C 7.484375 -23.054688 8.878906 -23.046875 10.265625 -23.078125 C 10.003906 -22.078125 9.742188 -21.078125 9.484375 -20.078125 C 9.234375 -19.085938 9.003906 -18.085938 8.796875 -17.078125 C 8.597656 -16.066406 8.4375 -15.054688 8.3125 -14.046875 C 8.1875 -13.035156 8.125 -12.007812 8.125 -10.96875 C 8.125 -10.726562 8.132812 -10.382812 8.15625 -9.9375 C 8.175781 -9.5 8.234375 -9.0625 8.328125 -8.625 C 8.429688 -8.195312 8.582031 -7.816406 8.78125 -7.484375 C 8.976562 -7.160156 9.257812 -7 9.625 -7 C 10.050781 -7 10.4375 -7.1875 10.78125 -7.5625 C 11.125 -7.9375 11.425781 -8.4375 11.6875 -9.0625 C 11.945312 -9.6875 12.171875 -10.40625 12.359375 -11.21875 C 12.546875 -12.039062 12.707031 -12.898438 12.84375 -13.796875 C 12.976562 -14.691406 13.082031 -15.59375 13.15625 -16.5 C 13.238281 -17.414062 13.300781 -18.273438 13.34375 -19.078125 C 13.382812 -19.878906 13.410156 -20.597656 13.421875 -21.234375 C 13.441406 -21.878906 13.453125 -22.378906 13.453125 -22.734375 C 13.453125 -22.960938 13.445312 -23.179688 13.4375 -23.390625 C 13.425781 -23.609375 13.40625 -23.832031 13.375 -24.0625 C 14.125 -24.039062 14.863281 -24.023438 15.59375 -24.015625 C 16.320312 -24.003906 17.054688 -24 17.796875 -24 C 18.359375 -24 18.925781 -24 19.5 -24 C 20.082031 -24.007812 20.664062 -24.03125 21.25 -24.0625 Z M 21.25 -24.0625 "/></g></g></g><g fill="#ffffff" fill-opacity="1"><g transform="translate(194.043975, 179.340838)"><g><path d="M 20.90625 -16.46875 C 20.90625 -15.582031 20.828125 -14.773438 20.671875 -14.046875 C 20.515625 -13.328125 20.269531 -12.664062 19.9375 -12.0625 C 19.613281 -11.457031 19.1875 -10.898438 18.65625 -10.390625 C 18.132812 -9.878906 17.503906 -9.390625 16.765625 -8.921875 L 20.828125 -1.671875 L 13.140625 -0.171875 L 10.515625 -7.453125 L 8.390625 -7.390625 L 8.078125 -0.28125 L 0.734375 -0.28125 C 0.796875 -2.875 0.847656 -5.457031 0.890625 -8.03125 C 0.941406 -10.601562 1.003906 -13.191406 1.078125 -15.796875 C 1.097656 -17.097656 1.117188 -18.394531 1.140625 -19.6875 C 1.160156 -20.976562 1.207031 -22.273438 1.28125 -23.578125 C 2.082031 -23.878906 2.867188 -24.125 3.640625 -24.3125 C 4.410156 -24.507812 5.1875 -24.660156 5.96875 -24.765625 C 6.75 -24.878906 7.539062 -24.953125 8.34375 -24.984375 C 9.144531 -25.023438 9.96875 -25.046875 10.8125 -25.046875 C 12.113281 -25.046875 13.367188 -24.867188 14.578125 -24.515625 C 15.796875 -24.160156 16.867188 -23.625 17.796875 -22.90625 C 18.734375 -22.1875 19.484375 -21.289062 20.046875 -20.21875 C 20.617188 -19.144531 20.90625 -17.894531 20.90625 -16.46875 Z M 13.25 -15.921875 C 13.25 -16.398438 13.179688 -16.835938 13.046875 -17.234375 C 12.921875 -17.640625 12.726562 -17.988281 12.46875 -18.28125 C 12.207031 -18.570312 11.882812 -18.796875 11.5 -18.953125 C 11.125 -19.117188 10.679688 -19.203125 10.171875 -19.203125 C 9.941406 -19.203125 9.71875 -19.1875 9.5 -19.15625 C 9.28125 -19.132812 9.070312 -19.09375 8.875 -19.03125 L 8.59375 -12.6875 L 9 -12.6875 C 9.488281 -12.6875 9.988281 -12.75 10.5 -12.875 C 11.007812 -13 11.460938 -13.191406 11.859375 -13.453125 C 12.265625 -13.710938 12.597656 -14.046875 12.859375 -14.453125 C 13.117188 -14.867188 13.25 -15.359375 13.25 -15.921875 Z M 13.25 -15.921875 "/></g></g></g><g fill="#ffffff" fill-opacity="1"><g transform="translate(215.076864, 179.340838)"><g><path d="M 19.9375 -13.8125 C 19.9375 -12.820312 19.867188 -11.828125 19.734375 -10.828125 C 17.785156 -10.703125 15.847656 -10.5 13.921875 -10.21875 C 12.003906 -9.945312 10.082031 -9.675781 8.15625 -9.40625 C 8.445312 -8.582031 8.910156 -7.925781 9.546875 -7.4375 C 10.179688 -6.945312 10.9375 -6.703125 11.8125 -6.703125 C 12.269531 -6.703125 12.765625 -6.785156 13.296875 -6.953125 C 13.835938 -7.128906 14.375 -7.34375 14.90625 -7.59375 C 15.445312 -7.851562 15.960938 -8.128906 16.453125 -8.421875 C 16.941406 -8.722656 17.363281 -8.992188 17.71875 -9.234375 L 16.90625 -1.46875 C 16.457031 -1.125 15.972656 -0.832031 15.453125 -0.59375 C 14.941406 -0.351562 14.40625 -0.160156 13.84375 -0.015625 C 13.28125 0.128906 12.710938 0.234375 12.140625 0.296875 C 11.578125 0.367188 11.019531 0.40625 10.46875 0.40625 C 9.34375 0.40625 8.3125 0.253906 7.375 -0.046875 C 6.445312 -0.359375 5.601562 -0.789062 4.84375 -1.34375 C 4.082031 -1.894531 3.414062 -2.546875 2.84375 -3.296875 C 2.28125 -4.046875 1.8125 -4.863281 1.4375 -5.75 C 1.0625 -6.644531 0.773438 -7.585938 0.578125 -8.578125 C 0.390625 -9.566406 0.296875 -10.570312 0.296875 -11.59375 C 0.296875 -12.644531 0.390625 -13.703125 0.578125 -14.765625 C 0.773438 -15.828125 1.066406 -16.847656 1.453125 -17.828125 C 1.847656 -18.804688 2.34375 -19.710938 2.9375 -20.546875 C 3.539062 -21.390625 4.238281 -22.125 5.03125 -22.75 C 5.832031 -23.375 6.738281 -23.863281 7.75 -24.21875 C 8.757812 -24.570312 9.875 -24.75 11.09375 -24.75 C 12.101562 -24.75 13.023438 -24.609375 13.859375 -24.328125 C 14.703125 -24.046875 15.453125 -23.65625 16.109375 -23.15625 C 16.765625 -22.664062 17.332031 -22.078125 17.8125 -21.390625 C 18.300781 -20.710938 18.703125 -19.960938 19.015625 -19.140625 C 19.328125 -18.328125 19.554688 -17.46875 19.703125 -16.5625 C 19.859375 -15.65625 19.9375 -14.738281 19.9375 -13.8125 Z M 13.109375 -14.703125 C 13.109375 -15.015625 13.070312 -15.335938 13 -15.671875 C 12.9375 -16.015625 12.828125 -16.320312 12.671875 -16.59375 C 12.515625 -16.863281 12.3125 -17.085938 12.0625 -17.265625 C 11.8125 -17.441406 11.5 -17.53125 11.125 -17.53125 C 10.664062 -17.53125 10.265625 -17.40625 9.921875 -17.15625 C 9.578125 -16.914062 9.273438 -16.609375 9.015625 -16.234375 C 8.765625 -15.867188 8.5625 -15.46875 8.40625 -15.03125 C 8.25 -14.601562 8.128906 -14.207031 8.046875 -13.84375 L 13.109375 -14.328125 Z M 13.109375 -14.703125 "/></g></g></g><g fill="#ffffff" fill-opacity="1"><g transform="translate(235.255463, 179.340838)"><g><path d="M 20.765625 -6.078125 C 20.765625 -5.140625 20.585938 -4.328125 20.234375 -3.640625 C 19.890625 -2.953125 19.425781 -2.367188 18.84375 -1.890625 C 18.269531 -1.410156 17.601562 -1.019531 16.84375 -0.71875 C 16.082031 -0.425781 15.289062 -0.191406 14.46875 -0.015625 C 13.65625 0.148438 12.832031 0.257812 12 0.3125 C 11.175781 0.375 10.40625 0.40625 9.6875 0.40625 C 8.976562 0.40625 8.242188 0.378906 7.484375 0.328125 C 6.734375 0.273438 5.984375 0.1875 5.234375 0.0625 C 4.484375 -0.0625 3.742188 -0.226562 3.015625 -0.4375 C 2.285156 -0.644531 1.59375 -0.910156 0.9375 -1.234375 L 0.90625 -23.25 C 1.539062 -23.507812 2.21875 -23.742188 2.9375 -23.953125 C 3.65625 -24.160156 4.382812 -24.332031 5.125 -24.46875 C 5.875 -24.613281 6.617188 -24.722656 7.359375 -24.796875 C 8.109375 -24.878906 8.828125 -24.921875 9.515625 -24.921875 C 10.328125 -24.921875 11.144531 -24.867188 11.96875 -24.765625 C 12.789062 -24.660156 13.582031 -24.488281 14.34375 -24.25 C 15.113281 -24.007812 15.828125 -23.695312 16.484375 -23.3125 C 17.148438 -22.9375 17.726562 -22.46875 18.21875 -21.90625 C 18.71875 -21.351562 19.109375 -20.703125 19.390625 -19.953125 C 19.671875 -19.210938 19.8125 -18.359375 19.8125 -17.390625 C 19.8125 -16.753906 19.71875 -16.15625 19.53125 -15.59375 C 19.351562 -15.039062 19.09375 -14.539062 18.75 -14.09375 C 18.40625 -13.65625 17.988281 -13.28125 17.5 -12.96875 C 17.007812 -12.65625 16.457031 -12.421875 15.84375 -12.265625 C 16.582031 -12.078125 17.253906 -11.796875 17.859375 -11.421875 C 18.472656 -11.046875 18.992188 -10.585938 19.421875 -10.046875 C 19.847656 -9.515625 20.175781 -8.910156 20.40625 -8.234375 C 20.644531 -7.566406 20.765625 -6.847656 20.765625 -6.078125 Z M 12.078125 -15.828125 C 12.078125 -16.160156 12.007812 -16.441406 11.875 -16.671875 C 11.738281 -16.898438 11.570312 -17.085938 11.375 -17.234375 C 11.175781 -17.390625 10.957031 -17.5 10.71875 -17.5625 C 10.488281 -17.632812 10.28125 -17.671875 10.09375 -17.671875 C 9.875 -17.671875 9.65625 -17.632812 9.4375 -17.5625 C 9.21875 -17.5 9.003906 -17.421875 8.796875 -17.328125 L 8.703125 -13.53125 C 8.960938 -13.53125 9.285156 -13.550781 9.671875 -13.59375 C 10.054688 -13.644531 10.425781 -13.75 10.78125 -13.90625 C 11.144531 -14.0625 11.453125 -14.289062 11.703125 -14.59375 C 11.953125 -14.894531 12.078125 -15.304688 12.078125 -15.828125 Z M 9.65625 -10.25 C 9.320312 -10.25 9.003906 -10.21875 8.703125 -10.15625 L 8.625 -6.25 C 8.800781 -6.21875 8.96875 -6.1875 9.125 -6.15625 C 9.289062 -6.132812 9.457031 -6.125 9.625 -6.125 C 9.863281 -6.125 10.125 -6.144531 10.40625 -6.1875 C 10.6875 -6.238281 10.953125 -6.34375 11.203125 -6.5 C 11.460938 -6.65625 11.671875 -6.863281 11.828125 -7.125 C 11.992188 -7.382812 12.078125 -7.734375 12.078125 -8.171875 C 12.078125 -8.597656 11.992188 -8.945312 11.828125 -9.21875 C 11.671875 -9.5 11.472656 -9.710938 11.234375 -9.859375 C 10.992188 -10.015625 10.726562 -10.117188 10.4375 -10.171875 C 10.15625 -10.222656 9.894531 -10.25 9.65625 -10.25 Z M 9.65625 -10.25 "/></g></g></g><g fill="#ffffff" fill-opacity="1"><g transform="translate(256.049159, 179.340838)"><g><path d="M 15.859375 -9.0625 L 15.140625 -1.46875 L 0.75 -0.34375 L 1.296875 -24.75 L 10.1875 -24.75 L 8.921875 -9.0625 Z M 15.859375 -9.0625 "/></g></g></g><g fill="#ffffff" fill-opacity="1"><g transform="translate(271.845693, 179.340838)"><g/></g></g><g fill="#ffffff" fill-opacity="1"><g transform="translate(278.680104, 179.340838)"><g/></g></g><g fill="#ffffff" fill-opacity="1"><g transform="translate(285.514515, 179.340838)"><g/></g></g><g fill="#ffffff" fill-opacity="1"><g transform="translate(292.348927, 179.340838)"><g/></g></g><g fill="#ffffff" fill-opacity="1"><g transform="translate(299.183338, 179.340838)"><g/></g></g><g fill="#ffffff" fill-opacity="1"><g transform="translate(306.029281, 179.340838)"><g><path d="M 21.546875 -23.28125 L 14.890625 -12.375 L 20.90625 -2.625 L 13.75 -0.40625 L 10.34375 -7.046875 L 6.71875 -0.03125 L -0.671875 -2.703125 L 5.625 -12.609375 L -0.125 -22.359375 L 7.703125 -24.234375 L 10.515625 -18.046875 L 13.484375 -24.234375 Z M 21.546875 -23.28125 "/></g></g></g></svg>